<svg version="1.0" xmlns="http://www.w3.org/2000/svg"
 width="6489.000000pt" height="5990.000000pt" viewBox="0 0 6489.000000 5990.000000"
 preserveAspectRatio="xMidYMid meet">
    <g class="checkbox" transform="translate(0.000000,5990.000000) scale(0.100000,-0.100000)" fill="#000000" stroke="none">
        <path d="M57684 59684 c-1471 -1279 -3670 -3282 -5504 -5013 -102 -96 -201
            -190 -221 -209 l-37 -34 -118 18 c-115 18 -1030 19 -24459 22 -17064 2 -24386
            0 -24495 -8 -85 -5 -199 -17 -253 -25 -879 -132 -1656 -641 -2133 -1397 -88
            -140 -223 -415 -278 -570 -72 -201 -128 -428 -163 -668 -16 -108 -18 -1636
            -21 -24465 -2 -17328 0 -24392 8 -24496 31 -417 123 -762 305 -1134 403 -826
            1166 -1428 2065 -1629 152 -34 284 -53 455 -65 195 -15 48602 -15 48800 -1
            951 71 1796 561 2322 1350 293 438 463 938 503 1475 7 96 10 5962 10 18481 l0
            18341 248 244 c1734 1711 3904 3680 5757 5225 1455 1212 3160 2529 4307 3325
            59 41 107 79 107 84 0 6 -52 78 -116 160 -177 227 -663 875 -893 1190 -2329
            3193 -4287 6420 -5527 9110 -110 239 -308 682 -370 829 -16 39 -34 71 -40 73
            -5 2 -122 -94 -259 -213z m-8039 -7442 c-82 -81 -492 -483 -910 -894 -3706
            -3638 -7275 -7419 -10321 -10933 -5050 -5827 -8895 -11185 -11295 -15739 -68
            -130 -126 -236 -129 -235 -3 0 -72 82 -155 181 -619 748 -1877 2180 -2935
            3343 -3439 3780 -6992 7269 -10222 10038 -459 393 -738 627 -746 627 -4 0 -52
            -64 -107 -143 -959 -1370 -2484 -3430 -3646 -4922 -1523 -1956 -2956 -3650
            -3957 -4677 l-134 -137 278 -217 c814 -633 2025 -1622 3054 -2493 5221 -4421
            10430 -9490 15001 -14601 1483 -1658 2773 -3171 4237 -4967 73 -90 135 -163
            138 -163 2 0 30 39 61 87 1781 2753 4320 6420 6757 9758 5388 7383 10820
            14020 15991 19540 532 568 1322 1397 1667 1750 l118 120 -3 -17325 -2 -17325
            -28 -100 c-95 -346 -356 -607 -702 -702 l-100 -28 -24315 0 -24315 0 -89 23
            c-186 47 -334 129 -462 257 -157 155 -247 332 -280 545 -12 82 -14 3311 -14
            24320 0 16726 3 24251 10 24309 27 213 122 405 279 562 150 149 330 242 531
            274 71 11 4068 13 23490 14 l23405 1 -150 -148z"
        />
    </g>
</svg>
